<svg version="1.1" id="Layer_1" xmlns="http://www.w3.org/2000/svg" xmlns:xlink="http://www.w3.org/1999/xlink" x="0px" y="0px"
	 viewBox="0 0 50 50" enable-background="new 0 0 50 50" xml:space="preserve">
	<g>
		<g>
			<path id="mark" fill="#666666" d="M22.1,25.8c0-4.3,4.9-5,4.9-6.9c0-0.8-0.6-1.5-2.3-1.5c-1.5,0-2.9,0.8-4,2l-3.7-4.2
				c2.1-2.4,5.3-3.6,8.4-3.6c5,0,8.2,2.4,8.2,6.1c0,5.5-5.9,5.9-5.9,8.7c0,0.7,0.3,1.2,0.6,1.5l-5.1,1.3
				C22.5,28.5,22.1,27.3,22.1,25.8z M22,34.4c0-1.9,1.6-3.6,3.6-3.6c1.9,0,3.6,1.6,3.6,3.6c0,1.9-1.6,3.6-3.6,3.6
				C23.7,37.9,22,36.3,22,34.4z"/>
		</g>
	</g>
	<path id="stroke" fill="#CCCCCC" d="M25.4,2.2C13,2.2,2.9,12.3,2.9,24.7c0,12.4,10.1,22.5,22.5,22.5c12.4,0,22.5-10.1,22.5-22.5
		C47.9,12.3,37.8,2.2,25.4,2.2z M25.4,44.2c-10.8,0-19.5-8.8-19.5-19.5c0-10.8,8.8-19.5,19.5-19.5c10.8,0,19.5,8.8,19.5,19.5
		C44.9,35.5,36.2,44.2,25.4,44.2z"/>
</svg>