<svg version="1.1" id="Layer_1" xmlns="http://www.w3.org/2000/svg" xmlns:xlink="http://www.w3.org/1999/xlink" x="0px" y="0px"
	 viewBox="0 0 50 50" enable-background="new 0 0 50 50" xml:space="preserve">
		<g>
			<g>
				<path id="question-mark" d="M21.8,25.7c0-4.8,5.4-5.5,5.4-7.6c0-0.9-0.7-1.6-2.5-1.6c-1.6,0-3.2,0.8-4.4,2.2l-4.1-4.6c2.3-2.6,5.8-4,9.3-4
					c5.6,0,9,2.7,9,6.8c0,6-6.5,6.5-6.5,9.7c0,0.7,0.3,1.4,0.6,1.7L23,29.6C22.2,28.7,21.8,27.4,21.8,25.7z M21.7,35.2
					c0-2.1,1.8-3.9,4-3.9c2.2,0,4,1.8,4,3.9c0,2.2-1.8,4-4,4C23.5,39.1,21.7,37.3,21.7,35.2z"/>
			</g>
		</g>
		<g>
			<g>
				<path id="question-stroke" d="M25.4,46.8c-12.2,0-22-9.9-22-22s9.9-22,22-22s22,9.9,22,22S37.6,46.8,25.4,46.8z M25.4,4.7c-11,0-20,9-20,20s9,20,20,20
					s20-9,20-20S36.5,4.7,25.4,4.7z"/>
			</g>
		</g>
</svg>