<?xml version="1.0" encoding="utf-8"?>
<!-- Generator: Adobe Illustrator 18.1.1, SVG Export Plug-In . SVG Version: 6.00 Build 0)  -->
<svg version="1.1" id="arrow_down" xmlns="http://www.w3.org/2000/svg" xmlns:xlink="http://www.w3.org/1999/xlink" x="0px" y="0px"
	 viewBox="0 0 50 50" enable-background="new 0 0 50 50" xml:space="preserve">
<path fill="#EE7873" d="M42.2,26.5c-0.7-0.7-1.6-1-2.6-1c-1,0-1.9,0.4-2.6,1l-8.5,8.5V6.3c0-2-1.6-3.6-3.6-3.6s-3.6,1.6-3.6,3.6
	v28.7l-8.5-8.5c-0.7-0.7-1.6-1-2.6-1c-1,0-1.9,0.4-2.6,1c-0.7,0.7-1,1.6-1,2.6c0,1,0.4,1.9,1.1,2.6l14.6,14.7
	c0.2,0.2,0.4,0.3,0.6,0.5c0.1,0.1,0.2,0.1,0.3,0.2l0.1,0.1c0.1,0.1,0.2,0.1,0.3,0.2c0.1,0.1,0.3,0.1,0.4,0.1
	c0.1,0.1,0.2,0.1,0.3,0.1c0.2,0,0.4,0,0.7,0h0.2c0.2,0,0.4-0.1,0.6-0.1c0.1,0,0.2-0.1,0.4-0.1c0.1-0.1,0.2-0.1,0.4-0.1
	c0.1-0.1,0.2-0.1,0.3-0.2l0.1-0.1c0.1-0.1,0.2-0.1,0.3-0.2c0.2-0.2,0.4-0.3,0.6-0.5l14.7-14.7C43.7,30.2,43.7,27.9,42.2,26.5z"/>
</svg>
