<?xml version="1.0" encoding="utf-8"?>
<!-- Generator: Adobe Illustrator 18.1.1, SVG Export Plug-In . SVG Version: 6.00 Build 0)  -->
<svg version="1.1" id="arrow_down" xmlns="http://www.w3.org/2000/svg" xmlns:xlink="http://www.w3.org/1999/xlink" x="0px" y="0px"
	 viewBox="23 -23 96 96" enable-background="new 23 -23 96 96" xml:space="preserve">
<path fill="#FFFFFF" d="M104.2,27.8c-1.3-1.3-3.1-2-5-2s-3.6,0.7-4.9,2L78,44.1V-11c0-3.9-3.1-7-7-7c-3.9,0-7,3.1-7,7v55.1
	L47.7,27.8c-1.3-1.3-3.1-2-4.9-2c-1.9,0-3.6,0.7-4.9,2c-1.3,1.3-2,3.1-2,5c0,1.9,0.7,3.6,2.1,5L66.1,66c0.3,0.3,0.7,0.6,1.1,0.9
	c0.2,0.1,0.3,0.2,0.5,0.3l0.1,0.1c0.2,0.1,0.4,0.2,0.6,0.3c0.2,0.1,0.5,0.2,0.7,0.2c0.2,0.1,0.4,0.1,0.6,0.2C70.1,68,70.5,68,71,68
	l0.3,0c0.4,0,0.7-0.1,1.1-0.1c0.2,0,0.4-0.1,0.7-0.2c0.2-0.1,0.4-0.1,0.7-0.2c0.2-0.1,0.4-0.2,0.6-0.3l0.1-0.1
	c0.2-0.1,0.3-0.2,0.5-0.3c0.4-0.3,0.7-0.5,1.1-0.9l28.3-28.3C107,34.9,107,30.5,104.2,27.8z"/>
</svg>
