<?xml version="1.0" encoding="utf-8"?>
<!-- Generator: Adobe Illustrator 18.1.1, SVG Export Plug-In . SVG Version: 6.00 Build 0)  -->
<svg version="1.1" id="Layer_1" xmlns="http://www.w3.org/2000/svg" xmlns:xlink="http://www.w3.org/1999/xlink" x="0px" y="0px"
	 viewBox="0 0 50 50" enable-background="new 0 0 50 50" xml:space="preserve">
<g>
	<g>
		<path fill="#52A956" d="M102.8,3.3c0.2-0.3,0.7-0.4,0.9-0.2c0.3,0.2,0.4,0.7,0.2,1L73.1,47c-0.1,0.2-0.3,0.3-0.5,0.3h-0.1
			c-0.2,0-0.3-0.1-0.5-0.2L59.9,35c-0.3-0.3-0.3-0.8,0-1c0.3-0.3,0.7-0.3,1,0l11.5,11.5L102.8,3.3z"/>
	</g>
</g>
<path fill="#111111" d="M49.8,2.9c-0.2-0.8-0.6-1.4-1.2-1.8c-0.5-0.4-1.2-0.6-1.9-0.6c-1.1,0-2.1,0.6-2.6,1.4L15.5,41.7l-9.4-9.4
	c-1.2-1.2-3.3-1.2-4.5,0c-0.6,0.5-0.9,1.2-1,2c-0.1,0.9,0.3,1.8,1,2.5L13.7,49l0.3,0.3l0.4,0.2c0.3,0.1,0.9,0.4,1.6,0.4l0,0
	c1.1,0,2-0.6,2.6-1.4L49.3,5.6C49.9,4.8,50.1,3.9,49.8,2.9z M4,33.8L4,33.8L4,33.8L4,33.8z"/>
<rect x="-38.8" y="-5" fill="#52A956" width="17.4" height="15.8"/>
</svg>
