<svg version="1.1" id="Layer_1" xmlns="http://www.w3.org/2000/svg" xmlns:xlink="http://www.w3.org/1999/xlink" x="0px" y="0px"
	 viewBox="0 0 50 50" enable-background="new 0 0 50 50" xml:space="preserve">
		<g>
			<g>
				<path class="heart-fill" fill="#FFFFFF" d="M35.8,6.4C42,6.4,47,11.5,47,17.7c0,3.2-1.5,5.9-3.5,8l-18,18.2L7.2,25.4C5.2,23.4,4,20.7,4,17.7
					C4,11.5,9,6.4,15.2,6.4c4.6,0,8.6,2.9,10.3,6.9C27.2,9.3,31.2,6.4,35.8,6.4z"/>
			</g>
		</g>
		<g>
			<g>
				<path class="heart-outline" d="M35.3,5.5c-3.9,0-7.5,1.8-9.8,4.9c-2.3-3-5.9-4.9-9.8-4.9C8.9,5.5,3.3,11.2,3.3,18c0,3.2,1.3,6.2,3.5,8.6l17.5,17.7
					l1.3,1.3l1.3-1.3l17.1-17.3c2.4-2.3,3.8-5.4,3.8-8.9C47.7,11.2,42.2,5.5,35.3,5.5z M35.3,7.2C41.2,7.2,46,12.1,46,18
					c0,3-1.4,5.7-3.4,7.6L25.5,43L8.1,25.4c-1.8-2-3-4.5-3-7.4c0-5.9,4.7-10.8,10.6-10.8c4.4,0,8.2,2.8,9.8,6.6
					C27.1,10,30.9,7.2,35.3,7.2z"/>
			</g>
		</g>
</svg>