<svg version="1.1" id="Layer_1" xmlns="http://www.w3.org/2000/svg" xmlns:xlink="http://www.w3.org/1999/xlink" x="0px" y="0px"
	 viewBox="0 0 50 50" enable-background="new 0 0 50 50" xml:space="preserve">
	<path fill="#FFFFFF" id="back" d="M33.4,7.3c-3.6,0-6.8,1.9-8.3,4.8c-1.5-2.9-4.8-4.8-8.4-4.8c-5.6,0-13.1,4.5-9.7,16.9
		c3.9,12.1,18.1,19.1,18.1,19.1s14.2-7.1,18.1-19.1C46.6,11.8,39,7.3,33.4,7.3z"/>
	<g>
		<path fill="#999999" id="outline" d="M25.1,44.4l-0.4-0.2C24.1,43.9,10,36.9,6,24.5c-2-7.2-0.3-11.5,1.5-13.8c2.1-2.7,5.5-4.4,9.2-4.4
			c3.4,0,6.5,1.5,8.4,4c1.9-2.4,5-4,8.3-4c3.7,0,7.1,1.7,9.3,4.4c1.8,2.3,3.5,6.6,1.5,13.7c-4,12.3-18,19.4-18.6,19.7L25.1,44.4z
			 M16.7,8.3c-3,0-5.9,1.3-7.6,3.6c-2.1,2.8-2.5,7-1.2,12c3.3,10.3,14.7,16.9,17.1,18.2c2.4-1.3,13.8-8,17.2-18.3
			c1.4-5,1-9.1-1.2-11.9c-1.7-2.3-4.6-3.6-7.7-3.6c-3.2,0-6.1,1.7-7.4,4.3l-0.9,1.7l-0.9-1.7C22.9,10,19.9,8.3,16.7,8.3z"/>
	</g>
</svg>