<?xml version="1.0" encoding="utf-8"?>
<!-- Generator: Adobe Illustrator 18.1.1, SVG Export Plug-In . SVG Version: 6.00 Build 0)  -->
<svg version="1.1" id="Layer_1" xmlns="http://www.w3.org/2000/svg" xmlns:xlink="http://www.w3.org/1999/xlink" x="0px" y="0px"
	 viewBox="0 0 50 50" enable-background="new 0 0 50 50" xml:space="preserve">
<g>
	<path fill="#583C20" d="M28.2,37.3c0.5,0,0.5,0,0.5,0.5c0,2.3-1.4,3.7-3.7,3.7s-3.7-1.4-3.7-3.7c0-0.5,0-0.5,0.5-0.5H28.2z
		 M40.6,35l0.5,0.5c0,0,0,0.5-0.5,0.5H9.4c-0.5,0-0.5,0-0.5-0.5c0,0,0-0.5,0.5-0.5c2.8-0.9,3.7-1.8,3.7-3.2v-7.3c0-5,2.8-9.2,7.3-11
		c0.5-2.3,2.3-3.7,4.6-3.7s4.1,1.4,4.6,3.7c4.6,1.8,7.3,6,7.3,11v7.3C36.9,33.1,37.8,34,40.6,35z"/>
</g>
</svg>
