<?xml version="1.0" encoding="utf-8"?>
<!-- Generator: Adobe Illustrator 18.1.1, SVG Export Plug-In . SVG Version: 6.00 Build 0)  -->
<svg version="1.1" id="Layer_1" xmlns="http://www.w3.org/2000/svg" xmlns:xlink="http://www.w3.org/1999/xlink" x="0px" y="0px"
	 viewBox="0 0 50 50" enable-background="new 0 0 50 50" xml:space="preserve">
<rect x="-76.8" y="0.2" fill="#FFFFFF" width="50" height="50"/>
<g>
	<g>
		<g>
			<path fill="#52A956" d="M107.3,3.3c0.2-0.3,0.7-0.4,0.9-0.2c0.3,0.2,0.4,0.7,0.2,1L77.6,47c-0.1,0.2-0.3,0.3-0.5,0.3H77
				c-0.2,0-0.3-0.1-0.5-0.2L64.4,35c-0.3-0.3-0.3-0.8,0-1c0.3-0.3,0.7-0.3,1,0l11.5,11.5L107.3,3.3z"/>
		</g>
	</g>
	<g>
		<g>
			<g>
				<path fill="#52A956" d="M107.9,2.9c0.1,0,0.3,0,0.4,0.2c0.3,0.2,0.4,0.7,0.2,1L77.6,47c-0.1,0.2-0.3,0.3-0.5,0.3H77
					c-0.2,0-0.3-0.1-0.5-0.2L64.4,35c-0.3-0.3-0.3-0.8,0-1c0.1-0.2,0.3-0.3,0.5-0.3c0.2,0,0.4,0.1,0.6,0.3l11.5,11.5l30.4-42.2
					C107.4,3.1,107.6,2.9,107.9,2.9 M107.9,1.5L107.9,1.5c-0.7,0-1.4,0.4-1.8,1L76.7,43.2L66.5,33c-0.4-0.4-1-0.7-1.6-0.7
					c-0.6,0-1.1,0.2-1.5,0.7c-0.4,0.4-0.6,0.8-0.7,1.4c0,0.6,0.2,1.2,0.7,1.7l12.1,12.2l0.2,0.2l0.2,0.1c0.3,0.1,0.6,0.3,1.2,0.3
					h0.1c0.7,0,1.4-0.4,1.7-1L109.6,5c0.4-0.5,0.5-1.2,0.4-1.8c-0.1-0.5-0.4-1-0.9-1.3C108.8,1.7,108.3,1.5,107.9,1.5L107.9,1.5z"/>
			</g>
		</g>
	</g>
</g>
<rect x="-38.8" y="17.1" fill="#C31D17" width="17.4" height="15.8"/>
<g>
	<path fill="#C31D17" d="M21.2,45c0-2.1,1.7-3.8,3.8-3.8c2.1,0,3.8,1.7,3.8,3.8c0,2-1.7,3.8-3.8,3.8C22.9,48.8,21.2,47,21.2,45z
		 M22.8,35.1L21.7,1.5h6.6l-1.1,33.5H22.8z"/>
</g>
<text transform="matrix(1 0 0 1 -43.0636 -12.5003)" font-family="'ProximaNova-Regular'" font-size="62.1877">!</text>
</svg>
