<?xml version="1.0" encoding="utf-8"?>
<!-- Generator: Adobe Illustrator 18.1.1, SVG Export Plug-In . SVG Version: 6.00 Build 0)  -->
<svg version="1.1" id="Layer_1" xmlns="http://www.w3.org/2000/svg" xmlns:xlink="http://www.w3.org/1999/xlink" x="0px" y="0px"
	 viewBox="0 0 50 50" enable-background="new 0 0 50 50" xml:space="preserve">
	<g>
		<g>
			<path fill="#111111" d="M32.8,15.7c-0.5,0-0.9-0.4-0.9-0.8c0-5.1-3.4-9.3-7.6-9.3c-4.1,0-7.5,4.1-7.5,9.3c0,0.4-0.4,0.8-0.9,0.8
				c-0.5,0-0.9-0.4-0.9-0.8c0-6.1,4.2-11.1,9.4-11.1c5.2,0,9.4,5,9.4,11.1C33.6,15.3,33.3,15.7,32.8,15.7z M42,17
				c0.3,0,0.7,0.2,0.7,0.7v26.8c0,0.4-0.3,0.7-0.7,0.7H8.1c-0.4,0-0.7-0.3-0.7-0.7V17.6c0-0.4,0.3-0.7,0.7-0.7H42z"/>
		</g>
	</g>
</svg>
