<?xml version="1.0" encoding="utf-8"?>
<!-- Generator: Adobe Illustrator 18.1.1, SVG Export Plug-In . SVG Version: 6.00 Build 0)  -->
<svg version="1.1" id="Layer_1" xmlns="http://www.w3.org/2000/svg" xmlns:xlink="http://www.w3.org/1999/xlink" x="0px" y="0px"
	 viewBox="0 0 348 347" enable-background="new 0 0 348 347" xml:space="preserve">
<g>
	<g>
		<path fill="none" stroke="#FFFFFF" stroke-width="30" stroke-miterlimit="10" d="M299.6,37.4c1.2-2.4,4.8-3,6.6-1.2
			c2.4,1.2,3,4.8,1.2,7.3L123.7,299c-0.6,1.2-1.8,2.4-3.6,2.4h-0.6c-1.2,0-2.4-0.6-3.6-1.2l-84-84.6c-2.4-2.4-2.4-5.4,0-7.3
			c1.8-2.4,4.8-2.4,7.3,0l79.8,79.8L299.6,37.4z"/>
	</g>
</g>
<g>
	<g>
		<path fill="#FFFFFF" d="M299.6,37.4c1.2-2.4,4.8-3,6.6-1.2c2.4,1.2,3,4.8,1.2,7.3L123.7,299c-0.6,1.2-1.8,2.4-3.6,2.4h-0.6
			c-1.2,0-2.4-0.6-3.6-1.2l-84-84.6c-2.4-2.4-2.4-5.4,0-7.3c1.8-2.4,4.8-2.4,7.3,0l79.8,79.8L299.6,37.4z"/>
	</g>
</g>
</svg>
