<?xml version="1.0" encoding="utf-8"?>
<!-- Generator: Adobe Illustrator 18.1.1, SVG Export Plug-In . SVG Version: 6.00 Build 0)  -->
<svg version="1.1" id="Layer_1" xmlns="http://www.w3.org/2000/svg" xmlns:xlink="http://www.w3.org/1999/xlink" x="0px" y="0px"
	 viewBox="0 0 348 347" enable-background="new 0 0 348 347" xml:space="preserve">
<g>
	<g>
		<path fill="#52A956" d="M321.6,22.3c1.2-2.4,4.8-3,6.6-1.2c2.4,1.2,3,4.8,1.2,7.3L114.9,326.8c-0.6,1.2-1.8,2.4-3.6,2.4h-0.6
			c-1.2,0-2.4-0.6-3.6-1.2l-84-84.6c-2.4-2.4-2.4-5.4,0-7.3c1.8-2.4,4.8-2.4,7.3,0l79.8,79.8L321.6,22.3z"/>
	</g>
</g>
<g>
	<g>
		<path fill="#52A956" d="M715.6,22.3c1.2-2.4,4.8-3,6.6-1.2c2.4,1.2,3,4.8,1.2,7.3L508.9,326.8c-0.6,1.2-1.8,2.4-3.6,2.4h-0.6
			c-1.2,0-2.4-0.6-3.6-1.2l-84-84.6c-2.4-2.4-2.4-5.4,0-7.3c1.8-2.4,4.8-2.4,7.3,0l79.8,79.8L715.6,22.3z"/>
	</g>
</g>
<g>
	<g>
		<g>
			<path fill="#52A956" d="M325.5,20c1,0,2,0.3,2.7,1.1c2.4,1.2,3,4.8,1.2,7.3L114.9,326.8c-0.6,1.2-1.8,2.4-3.6,2.4h-0.6
				c-1.2,0-2.4-0.6-3.6-1.2l-84-84.6c-2.4-2.4-2.4-5.4,0-7.3c0.9-1.2,2.1-1.8,3.4-1.8s2.6,0.6,3.9,1.8l79.8,79.8L321.6,22.3
				C322.3,20.8,323.9,20,325.5,20 M325.5,10L325.5,10c-5.1,0-9.8,2.7-12.3,6.9L108.9,300.5l-71.4-71.4c-3.1-3.1-6.9-4.7-10.9-4.7
				c-4,0-7.8,1.7-10.5,4.7c-2.8,2.5-4.4,5.8-4.7,9.5c-0.3,4.3,1.4,8.6,4.7,11.9l84,84.6l1.2,1.2l1.5,0.7c1.8,0.9,4.5,2.3,8.1,2.3
				h0.6c5,0,9.5-2.7,12.1-7.1L337.5,34.2c2.7-3.6,3.6-8.2,2.6-12.6c-0.9-3.6-3-6.7-6-8.7C331.7,11,328.7,10,325.5,10L325.5,10z"/>
		</g>
	</g>
</g>
<rect x="-270" y="-35" fill="#52A956" width="121" height="110"/>
</svg>
