<?xml version="1.0" encoding="utf-8"?>
<!-- Generator: Adobe Illustrator 18.1.1, SVG Export Plug-In . SVG Version: 6.00 Build 0)  -->
<svg version="1.1" id="Layer_1" xmlns="http://www.w3.org/2000/svg" xmlns:xlink="http://www.w3.org/1999/xlink" x="0px" y="0px"
	 viewBox="0 0 50 50" enable-background="new 0 0 50 50" xml:space="preserve">
<g>
	<g>
		<g>
			<path fill="#111111" d="M19.2,5.1c7.6,0,13.7,6.1,13.7,13.7c0,3.6-1.4,6.8-3.6,9.2c0.1,0,0.2,0.1,0.2,0.1l15,15
				c0.2,0.3,0.2,0.7,0,1c-0.2,0.1-0.3,0.2-0.5,0.2c-0.2,0-0.3-0.1-0.5-0.2l-15-15c0,0-0.1-0.1-0.1-0.2c-2.4,2.2-5.7,3.6-9.2,3.6
				c-7.6,0-13.7-6.1-13.7-13.7C5.5,11.3,11.6,5.1,19.2,5.1 M19.2,31.2c6.9,0,12.4-5.5,12.4-12.4c0-6.8-5.5-12.4-12.4-12.4
				C12.4,6.4,6.8,12,6.8,18.8C6.8,25.7,12.4,31.2,19.2,31.2 M19.2,4.1c-8.1,0-14.7,6.6-14.7,14.7c0,8.1,6.6,14.7,14.7,14.7
				c3.3,0,6.5-1.1,9.1-3.2l14.4,14.5c0.1,0.1,0.2,0.1,0.3,0.2c0.2,0.1,0.5,0.3,0.9,0.3c0.5,0,0.8-0.2,1-0.3c0.1-0.1,0.3-0.2,0.4-0.3
				c0.5-0.7,0.5-1.5,0-2.2c0,0-0.1-0.1-0.1-0.1L30.7,28c2.1-2.6,3.2-5.8,3.2-9.1C33.9,10.7,27.3,4.1,19.2,4.1L19.2,4.1z M19.2,30.2
				c-6.3,0-11.4-5.1-11.4-11.4c0-6.3,5.1-11.4,11.4-11.4c6.3,0,11.4,5.1,11.4,11.4C30.6,25.1,25.5,30.2,19.2,30.2L19.2,30.2z"/>
		</g>
	</g>
</g>
<g>
	<g>
		<path fill="#111111" d="M19.2,31.2c6.9,0,12.4-5.5,12.4-12.4c0-6.8-5.5-12.4-12.4-12.4C12.4,6.4,6.8,12,6.8,18.8
			C6.8,25.7,12.4,31.2,19.2,31.2z M29.4,28.1l15,15c0.2,0.3,0.2,0.7,0,1c-0.2,0.1-0.3,0.2-0.5,0.2c-0.2,0-0.3-0.1-0.5-0.2l-15-15
			c0,0-0.1-0.1-0.1-0.2c-2.4,2.2-5.7,3.6-9.2,3.6c-7.6,0-13.7-6.1-13.7-13.7c0-7.6,6.1-13.7,13.7-13.7s13.7,6.1,13.7,13.7
			c0,3.6-1.4,6.8-3.6,9.2C29.4,28.1,29.4,28.1,29.4,28.1z"/>
	</g>
</g>
</svg>
