<?xml version="1.0" encoding="utf-8"?>
<!-- Generator: Adobe Illustrator 18.1.1, SVG Export Plug-In . SVG Version: 6.00 Build 0)  -->
<svg version="1.1" id="Layer_1" xmlns="http://www.w3.org/2000/svg" xmlns:xlink="http://www.w3.org/1999/xlink" x="0px" y="0px"
	 viewBox="0 0 50 50" enable-background="new 0 0 50 50" xml:space="preserve">
<g>
	<g>
		<path fill="#DDDDDD" d="M43.7,18.6c0.3,0,0.5,0.2,0.7,0.5c0.1,0.2,0,0.5-0.2,0.8l-11,8.6l4.7,14.6c0.1,0.2,0,0.5-0.2,0.7
			c-0.1,0.1-0.2,0.2-0.4,0.2c-0.2,0-0.2-0.1-0.4-0.2l-11.8-8.6l-11.8,8.6c-0.2,0.2-0.5,0.2-0.8,0c-0.2-0.2-0.3-0.5-0.2-0.7l4.7-14.1
			l-11-9.2c-0.2-0.2-0.3-0.5-0.2-0.7c0.1-0.2,0.3-0.5,0.6-0.5h13.6l4.4-12.8c0.1-0.3,0.3-0.5,0.6-0.5c0.3,0,0.5,0.2,0.6,0.5
			l4.4,12.8H43.7z"/>
	</g>
</g>
</svg>
