<?xml version="1.0" encoding="utf-8"?>
<!-- Generator: Adobe Illustrator 18.1.1, SVG Export Plug-In . SVG Version: 6.00 Build 0)  -->
<svg version="1.1" id="Layer_1" xmlns="http://www.w3.org/2000/svg" xmlns:xlink="http://www.w3.org/1999/xlink" x="0px" y="0px"
	 viewBox="0 0 30 30" enable-background="new 0 0 30 30" xml:space="preserve">
<path fill="#FFFFFF" d="M54,29.2c-7.9,0-14.2-6.4-14.2-14.2S46.1,0.8,54,0.8S68.2,7.1,68.2,15S61.9,29.2,54,29.2z"/>
<path fill="#666666" d="M54,1.5c7.4,0,13.5,6.1,13.5,13.5S61.4,28.5,54,28.5S40.5,22.4,40.5,15S46.6,1.5,54,1.5 M54,0
	c-8.3,0-15,6.7-15,15s6.7,15,15,15s15-6.7,15-15S62.3,0,54,0L54,0z"/>
<g>
	<g>
		<defs>
			<polygon id="SVGID_1_" points="79.9,5.4 75.8,9.5 76.8,10.3 79.3,7.7 79.3,18.6 80.5,18.6 80.5,7.7 83.2,10.3 84,9.5 			"/>
		</defs>
		<clipPath id="SVGID_2_">
			<use xlink:href="#SVGID_1_"  overflow="visible"/>
		</clipPath>
		<g clip-path="url(#SVGID_2_)">
			<defs>
				<rect id="SVGID_3_" x="-305.8" y="-437.9" width="428.6" height="762.3"/>
			</defs>
			<clipPath id="SVGID_4_">
				<use xlink:href="#SVGID_3_"  overflow="visible"/>
			</clipPath>
			<rect x="70.1" y="-0.3" clip-path="url(#SVGID_4_)" fill="#666666" width="19.6" height="24.6"/>
		</g>
	</g>
	<g>
		<defs>
			<polygon id="SVGID_5_" points="84.1,11.4 84.1,12.6 87.7,12.6 87.7,23.4 72.1,23.4 72.1,12.6 75.7,12.6 75.7,11.4 70.9,11.4 
				70.9,24.6 88.9,24.6 88.9,11.4 			"/>
		</defs>
		<clipPath id="SVGID_6_">
			<use xlink:href="#SVGID_5_"  overflow="visible"/>
		</clipPath>
		<g clip-path="url(#SVGID_6_)">
			<defs>
				<rect id="SVGID_7_" x="-305.8" y="-437.9" width="428.6" height="762.3"/>
			</defs>
			<clipPath id="SVGID_8_">
				<use xlink:href="#SVGID_7_"  overflow="visible"/>
			</clipPath>
			<rect x="65.2" y="5.7" clip-path="url(#SVGID_8_)" fill="#666666" width="29.4" height="24.6"/>
		</g>
	</g>
</g>
<g>
	<g>
		<defs>
			<polygon id="SVGID_9_" points="22.1,7.1 12.8,7.1 13,9.2 18.8,9.1 6.4,21.5 7.8,22.9 20.2,10.4 20.2,16.4 22.1,16.5 			"/>
		</defs>
		<use xlink:href="#SVGID_9_"  overflow="visible" fill-rule="evenodd" clip-rule="evenodd" fill="#111111"/>
		<clipPath id="SVGID_10_">
			<use xlink:href="#SVGID_9_"  overflow="visible"/>
		</clipPath>
		<g clip-path="url(#SVGID_10_)">
			<defs>
				
					<rect id="SVGID_11_" x="-447.1" y="-872" transform="matrix(-0.7071 -0.7071 0.7071 -0.7071 8.3242 -513.8318)" width="689.7" height="1226.7"/>
			</defs>
			<use xlink:href="#SVGID_11_"  overflow="visible" fill="#111111"/>
			<clipPath id="SVGID_12_">
				<use xlink:href="#SVGID_11_"  overflow="visible"/>
			</clipPath>
			
				<rect x="-1.2" y="-5.2" transform="matrix(-0.7071 -0.7071 0.7071 -0.7071 14.5428 35.3411)" clip-path="url(#SVGID_12_)" fill="#111111" width="31.6" height="39.6"/>
		</g>
	</g>
</g>
</svg>
